<svg id="visual" viewBox="0 0 900 600" width="900" height="600" xmlns="http://www.w3.org/2000/svg" xmlns:xlink="http://www.w3.org/1999/xlink" version="1.1"><path d="M0 440L21.5 448.7C43 457.3 86 474.7 128.8 474.7C171.7 474.7 214.3 457.3 257.2 457.2C300 457 343 474 385.8 475.3C428.7 476.7 471.3 462.3 514.2 463.3C557 464.3 600 480.7 642.8 490.2C685.7 499.7 728.3 502.3 771.2 503.2C814 504 857 503 878.5 502.5L900 502L900 601L878.5 601C857 601 814 601 771.2 601C728.3 601 685.7 601 642.8 601C600 601 557 601 514.2 601C471.3 601 428.7 601 385.8 601C343 601 300 601 257.2 601C214.3 601 171.7 601 128.8 601C86 601 43 601 21.5 601L0 601Z" fill="#fa7268"></path><path d="M0 498L21.5 506.8C43 515.7 86 533.3 128.8 535.5C171.7 537.7 214.3 524.3 257.2 521.8C300 519.3 343 527.7 385.8 532.3C428.7 537 471.3 538 514.2 538C557 538 600 537 642.8 528.8C685.7 520.7 728.3 505.3 771.2 497.7C814 490 857 490 878.5 490L900 490L900 601L878.5 601C857 601 814 601 771.2 601C728.3 601 685.7 601 642.8 601C600 601 557 601 514.2 601C471.3 601 428.7 601 385.8 601C343 601 300 601 257.2 601C214.3 601 171.7 601 128.8 601C86 601 43 601 21.5 601L0 601Z" fill="#c62368"></path></svg>